<svg xmlns="http://www.w3.org/2000/svg" width="20" height="20.006" viewBox="0 0 20 20.006">
  <g id="icon_checklist" transform="translate(-1.849 -1.838)">
    <path id="Trazado_141" data-name="Trazado 141" d="M11.86,21.475a9.617,9.617,0,1,1,3.918-18.4.74.74,0,1,1-.6,1.351A8.136,8.136,0,1,0,20,11.861v-.816a.74.74,0,0,1,1.479,0v.817a9.63,9.63,0,0,1-9.62,9.614Z" transform="translate(-0.015 -0.015)" fill="#1a66a3"/>
    <path id="Trazado_141_-_Contorno" data-name="Trazado 141 - Contorno" d="M11.845,21.844a10,10,0,0,1-2.2-19.757,10.076,10.076,0,0,1,2.217-.249,9.908,9.908,0,0,1,4.057.869A1.124,1.124,0,1,1,15,4.761,7.638,7.638,0,0,0,11.876,4.1,7.742,7.742,0,0,0,5.347,16.06a7.851,7.851,0,0,0,6.531,3.528,7.646,7.646,0,0,0,2.169-.313A7.8,7.8,0,0,0,19.6,11.845v-.816a1.124,1.124,0,1,1,2.248,0v.817a10.014,10.014,0,0,1-10,10Zm.018-19.237a9.305,9.305,0,0,0-2.047.23A9.231,9.231,0,1,0,21.08,11.846v-.816a.355.355,0,1,0-.71,0v.816a8.571,8.571,0,0,1-6.1,8.166,8.414,8.414,0,0,1-2.387.345,8.636,8.636,0,0,1-4.054-1.018A8.508,8.508,0,0,1,11.876,3.329a8.4,8.4,0,0,1,3.442.729.352.352,0,0,0,.144.031.355.355,0,0,0,.145-.679A9.144,9.144,0,0,0,11.863,2.607Z" transform="translate(0 0)" fill="#1a66a3"/>
    <path id="Trazado_142" data-name="Trazado 142" d="M16.152,15.614a.74.74,0,0,1-.523-.217l-2.663-2.663a.74.74,0,1,1,1.046-1.046l2.139,2.139L24.5,5.467a.74.74,0,0,1,1.047,1.045L16.676,15.4A.74.74,0,0,1,16.152,15.614Z" transform="translate(-4.303 -1.244)" fill="#1a66a3"/>
    <path id="Trazado_142_-_Contorno" data-name="Trazado 142 - Contorno" d="M16.137,15.983a1.117,1.117,0,0,1-.795-.329l-2.663-2.663a1.124,1.124,0,0,1,1.59-1.59l1.867,1.867L24.217,5.18a1.124,1.124,0,0,1,1.591,1.589l-8.876,8.884a1.117,1.117,0,0,1-.8.33Zm-2.663-4.142a.355.355,0,0,0-.251.606l2.663,2.663a.353.353,0,0,0,.251.1v0a.353.353,0,0,0,.251-.1l8.876-8.884a.355.355,0,0,0-.5-.5l-8.624,8.633-2.411-2.411A.353.353,0,0,0,13.474,11.841Z" transform="translate(-4.287 -1.229)" fill="#1a66a3"/>
  </g>
</svg>
