<svg xmlns="http://www.w3.org/2000/svg" width="936.982" height="750.496" viewBox="0 0 936.982 750.496">
  <path id="iso_logo" d="M484.364,383.074C369.276,447.2,135.507,579.286,0,749.634,158.991,473.416,409.8,376.608,484.364,383.074Zm347.258-28.411c-9.254-71.87-70.055-86.2-95.774-89.1-35.382-75.391-313.126-77.6-643.319,125.52A610.571,610.571,0,0,1,305.807,238.085C336.5,123.093,430.305,29.819,555,5.842,728.745-27.629,896.714,86.125,930.173,259.91,963.6,433.672,849.842,601.64,676.081,635.087a319.079,319.079,0,0,1-226.594-40.622c36.163-36.98,95.1-82.182,203.206-141.144-135.615,31.44-342.667,164.459-457.972,253.551C379.516,478.873,732.9,338.041,831.622,354.663Zm-269.644-72.8c71.858-21.825,129.931-10.276,129.931-10.276L661.935,301.53S611.133,282.421,561.978,281.868Z" transform="translate(0.433 0.551)" fill="#fff" stroke="rgba(0,0,0,0)" stroke-width="1" opacity="0.15"/>
</svg>
