<svg xmlns="http://www.w3.org/2000/svg" width="1074.992" height="861.027" viewBox="0 0 1074.992 861.027">
  <path id="iso_logo_light" d="M555.776,439.553C423.721,513.138,155.486,664.694,0,860.157,182.432,543.215,470.221,432.134,555.776,439.553Zm398.457-32.6c-10.618-82.466-80.384-98.9-109.895-102.241-40.6-86.506-359.292-89.044-738.167,144.026a700.592,700.592,0,0,1,244.723-175.55C386.115,141.242,493.748,34.215,636.822,6.7c199.366-38.406,392.1,92.119,430.492,291.527,38.351,199.38-92.174,392.113-291.554,430.492a366.122,366.122,0,0,1-260-46.611c41.495-42.433,109.123-94.3,233.166-161.953C593.314,556.233,355.734,708.864,223.43,811.091,435.47,549.476,840.96,387.881,954.233,406.953Zm-309.4-83.528c82.452-25.043,149.087-11.791,149.087-11.791l-34.393,34.352S701.236,324.059,644.834,323.425Z" transform="translate(0.433 0.558)" fill="#f1f6fa" stroke="rgba(0,0,0,0)" stroke-width="1"/>
</svg>
