<?xml version="1.0" encoding="UTF-8"?>
<svg xmlns="http://www.w3.org/2000/svg" width="113.702" height="100" viewBox="0 0 113.702 100">
  <g id="logo_jac" transform="translate(0.5 0.5)">
    <path id="path2" d="M60.212,0c22.849,0,41.379,11.248,41.379,25.117S83.061,50.234,60.212,50.234,18.834,38.986,18.834,25.117,37.363,0,60.212,0ZM59.9,29.245,44.013,45.792a47.712,47.712,0,0,0,32.4,0L60.52,29.245C60.3,29.014,60.127,29.014,59.9,29.245ZM43.575,45.624,54.212,25.674c.172-.322-.188-.644-.483-.705l-26.523-5.54A16.731,16.731,0,0,0,26.2,25.117c0,8.8,7.007,16.478,17.374,20.507ZM27.312,19.138l28.669.069c.566,0,.825.052.957-.66L60.13,1.608C44.374,1.633,31.133,9.068,27.312,19.138ZM60.295,1.608l3.192,16.939c.131.712.39.661.957.66l28.668-.069C89.291,9.069,76.05,1.633,60.295,1.608ZM93.218,19.429l-26.524,5.54c-.3.061-.654.383-.482.705L76.85,45.624c10.367-4.029,17.374-11.7,17.374-20.507A16.731,16.731,0,0,0,93.218,19.429Z" transform="translate(-3.861 -0.004)" fill="#fff" fill-rule="evenodd"></path>
    <path id="path2_-_Contorno" data-name="path2 - Contorno" d="M60.208-.5A65.3,65.3,0,0,1,76.436,1.49,49.107,49.107,0,0,1,89.723,6.93a29.381,29.381,0,0,1,9.018,8.124,17.4,17.4,0,0,1,3.341,10.059,17.4,17.4,0,0,1-3.341,10.059A29.381,29.381,0,0,1,89.723,43.3a49.107,49.107,0,0,1-13.287,5.44,65.3,65.3,0,0,1-16.228,1.99,65.3,65.3,0,0,1-16.228-1.99A49.1,49.1,0,0,1,30.693,43.3a29.38,29.38,0,0,1-9.018-8.124,17.4,17.4,0,0,1-3.341-10.059,17.4,17.4,0,0,1,3.341-10.059A29.38,29.38,0,0,1,30.693,6.93,49.1,49.1,0,0,1,43.98,1.49,65.3,65.3,0,0,1,60.208-.5Zm0,50.234c22.543,0,40.883-11.045,40.883-24.621S82.751.492,60.208.492,19.326,11.537,19.326,25.113,37.665,49.734,60.208,49.734ZM59.692,1.107h1.032v0A48.188,48.188,0,0,1,71.645,2.456a40.762,40.762,0,0,1,9.766,3.711,30.5,30.5,0,0,1,7.531,5.641,21.35,21.35,0,0,1,4.589,7.045h0l.074.2.217.572H93.81a17.208,17.208,0,0,1,.905,5.484A18.866,18.866,0,0,1,89.8,37.481a32.1,32.1,0,0,1-12.514,8.5l.006.006-.672.253h0l-.033.012a48.207,48.207,0,0,1-32.747,0L43.8,46.24h0l-.1-.037-.576-.216.006-.006a32.1,32.1,0,0,1-12.514-8.5A18.866,18.866,0,0,1,25.7,25.113a17.207,17.207,0,0,1,.905-5.484H26.59l.233-.613.059-.163h0a21.352,21.352,0,0,1,4.589-7.045,30.5,30.5,0,0,1,7.531-5.641,40.761,40.761,0,0,1,9.766-3.71A48.194,48.194,0,0,1,59.693,1.111ZM92.374,18.64C88.272,9.021,75.516,2.307,60.89,2.1l3.08,16.347a1.05,1.05,0,0,0,.069.249,1.452,1.452,0,0,0,.194.008h.206Zm-36,.06a1.042,1.042,0,0,0,.069-.247L59.527,2.1C44.9,2.307,32.144,9.021,28.042,18.64l27.937.067h.206A1.451,1.451,0,0,0,56.378,18.7Zm7.855,1c-.625,0-1.074-.181-1.238-1.067L60.208,3.845l-2.787,14.79c-.164.884-.613,1.065-1.237,1.065h-.207l-25.329-.061,23.179,4.841a1.235,1.235,0,0,1,.836.643.854.854,0,0,1-.017.781l-9.7,18.2,14.6-15.2a.842.842,0,0,1,1.331,0l14.6,15.2-9.7-18.2a.855.855,0,0,1-.017-.782,1.234,1.234,0,0,1,.836-.643l23.179-4.841L64.44,19.7Zm-10.5,5.808a.283.283,0,0,0-.108-.058L27.528,20a16.213,16.213,0,0,0-.835,5.113c0,8.168,6.366,15.756,16.648,19.883ZM77.075,45C87.357,40.868,93.723,33.28,93.723,25.113A16.213,16.213,0,0,0,92.888,20l-26.1,5.45a.282.282,0,0,0-.108.057Zm-1.552.587L60.208,29.636,44.894,45.583a47.374,47.374,0,0,0,30.629,0Z" transform="translate(-3.856)" fill="#fff"></path>
    <path id="path4" d="M86.706,81.257c2.558-4.733,8.894-6.046,13.621-1.9.48.421.636.81,1.338.81h8.66c1,0,1.672-.318,1.817-.91a1.837,1.837,0,0,0-.55-1.568c-3.691-4.4-8.938-7.089-16.209-7.476-7.792-.416-16.206,2.844-19.846,9.544a11.652,11.652,0,0,0,0,10.518c3.64,6.7,12.054,9.96,19.846,9.544,5.847-.312,10.387-2.111,13.859-5.093a26.072,26.072,0,0,0,2.971-3.2,1.718,1.718,0,0,0,.455-1.568c-.145-.592-.82-.91-1.817-.91h-8.66c-.785,0-1.785,1.579-2.46,2.127a8.729,8.729,0,0,1-2.658,1.568,8.586,8.586,0,0,1-10.366-3.972,7.85,7.85,0,0,1,0-7.52ZM33.864,99.149h7.024a3.141,3.141,0,0,0,2.328-1.439l10.33-16.679a1.16,1.16,0,0,1,.942-.577,1.2,1.2,0,0,1,.944.595l4.015,6.483c.49.79.195,1.2-.743,1.2H53.088a3.032,3.032,0,0,0-2.35,1.361L49.287,92.6c-.6,1.034-.332,1.816.84,1.816H62.183a2.262,2.262,0,0,1,2.39,1.386l1.179,1.9a3.141,3.141,0,0,0,2.328,1.439H75.1c.808,0,1.081-.647.608-1.439L60.537,72.324a3.087,3.087,0,0,0-2.328-1.439H50.758a3.087,3.087,0,0,0-2.328,1.439L33.257,97.71C32.784,98.5,33.057,99.149,33.864,99.149Zm-1.41-28.264V89.93c0,5.07-3.886,9.218-8.635,9.218H8.635C3.886,99.149,0,95,0,89.93v-2.5H7.412c1.527,0,2.218.5,2.218,2.1v.406c0,1.769,1.237,3.744,3.161,3.744h6.873c1.924,0,3.161-1.975,3.161-3.744V74.3c0-1.9.884-3.416,2.982-3.416Z" transform="translate(-0.004 -14.374)" fill="#fff" fill-rule="evenodd"></path>
    <path id="path4_-_Contorno" data-name="path4 - Contorno" d="M94.048,69.679c.452,0,.908.012,1.356.036a25.6,25.6,0,0,1,9.633,2.28,20.383,20.383,0,0,1,6.93,5.373,2.251,2.251,0,0,1,.652,2c-.2.818-1.038,1.288-2.3,1.288h-8.66a1.748,1.748,0,0,1-1.391-.667c-.085-.087-.173-.178-.273-.266a8.975,8.975,0,0,0-5.949-2.366,7.748,7.748,0,0,0-6.909,4.127,7.384,7.384,0,0,0,0,7.048,8.03,8.03,0,0,0,7.088,4.188,8.24,8.24,0,0,0,2.681-.449,8.138,8.138,0,0,0,2.506-1.484,7.167,7.167,0,0,0,.7-.733c.651-.74,1.324-1.5,2.073-1.505h8.661c1.261,0,2.1.469,2.3,1.288a2.21,2.21,0,0,1-.557,2l-.207.247A24.4,24.4,0,0,1,109.56,95.1a20.487,20.487,0,0,1-6.188,3.636A26.787,26.787,0,0,1,95.4,100.31c-.448.024-.9.036-1.356.036a25.033,25.033,0,0,1-10.964-2.47A17.837,17.837,0,0,1,75.1,90.508a12.108,12.108,0,0,1,0-10.991,17.837,17.837,0,0,1,7.988-7.368A25.033,25.033,0,0,1,94.048,69.679Zm16.272,9.989c.755,0,1.254-.2,1.335-.532A1.439,1.439,0,0,0,111.207,78c-3.813-4.547-9-6.934-15.856-7.3-.431-.023-.869-.035-1.3-.035-7.908,0-15,3.658-18.08,9.32a11.223,11.223,0,0,0,0,10.044c3.076,5.662,10.173,9.32,18.08,9.32.434,0,.873-.012,1.3-.035,5.5-.293,10.061-1.967,13.563-4.974a23.647,23.647,0,0,0,2.707-2.89l.207-.247a1.255,1.255,0,0,0,.353-1.131c-.081-.333-.581-.532-1.335-.532h-8.66c-.3,0-.969.76-1.329,1.169a7.677,7.677,0,0,1-.819.848,8.668,8.668,0,0,1-5.812,2.155,9.021,9.021,0,0,1-7.96-4.709,8.373,8.373,0,0,1,0-7.992,8.785,8.785,0,0,1,7.781-4.647,9.951,9.951,0,0,1,6.6,2.612c.13.114.236.223.33.32.26.267.357.367.68.367ZM50.748,70.384h7.463a3.576,3.576,0,0,1,2.748,1.681L76.132,97.452a1.568,1.568,0,0,1,.149,1.581,1.3,1.3,0,0,1-1.183.608H68.075a3.642,3.642,0,0,1-2.749-1.673l-1.179-1.9c-.613-.99-.889-1.151-1.968-1.151H50.123a1.548,1.548,0,0,1-1.474-.69,1.87,1.87,0,0,1,.2-1.869l.728-1.261.723-1.253a3.5,3.5,0,0,1,2.779-1.609H58.7a1.066,1.066,0,0,0,.48-.074.94.94,0,0,0-.158-.368l-4.015-6.483a.71.71,0,0,0-.527-.36.679.679,0,0,0-.516.343L43.633,97.967a3.643,3.643,0,0,1-2.749,1.673H33.86a1.3,1.3,0,0,1-1.183-.608,1.567,1.567,0,0,1,.15-1.581L48,72.065A3.576,3.576,0,0,1,50.748,70.384Zm7.457.992H50.748a2.616,2.616,0,0,0-1.9,1.2L33.679,97.96c-.166.278-.189.493-.138.583.037.066.157.105.32.105h7.024a2.686,2.686,0,0,0,1.906-1.2L53.12,80.766a1.642,1.642,0,0,1,1.356-.812h.011a1.671,1.671,0,0,1,1.361.829l4.015,6.483a1.328,1.328,0,0,1,.19,1.375,1.42,1.42,0,0,1-1.354.581H53.084a2.534,2.534,0,0,0-1.92,1.113l-.723,1.252-.728,1.261c-.262.454-.274.757-.2.877s.3.194.615.194H62.179a2.741,2.741,0,0,1,2.811,1.621l1.179,1.9a2.686,2.686,0,0,0,1.906,1.2H75.1c.163,0,.283-.039.32-.105.051-.09.028-.3-.138-.583L60.107,72.574a2.616,2.616,0,0,0-1.9-1.2Zm-32.4-.992h7.143V89.926a9.968,9.968,0,0,1-2.67,6.849,8.8,8.8,0,0,1-6.46,2.865H8.631a8.8,8.8,0,0,1-6.46-2.865A9.968,9.968,0,0,1-.5,89.926v-3H7.408a2.9,2.9,0,0,1,2.012.575,2.524,2.524,0,0,1,.7,2.017v.406c0,1.569,1.071,3.248,2.665,3.248H19.66c1.594,0,2.665-1.679,2.665-3.248V74.3a4.373,4.373,0,0,1,.81-2.725A3.243,3.243,0,0,1,25.8,70.384Zm6.151.992H25.8c-2.163,0-2.486,1.83-2.486,2.92v15.63a4.743,4.743,0,0,1-.962,2.838,3.375,3.375,0,0,1-2.7,1.4H12.787a3.375,3.375,0,0,1-2.7-1.4,4.743,4.743,0,0,1-.962-2.838v-.406c0-1.241-.386-1.6-1.722-1.6H.492v2.006c0,4.81,3.651,8.722,8.139,8.722H23.816c4.488,0,8.139-3.913,8.139-8.722Z" transform="translate(0 -14.37)" fill="#fff"></path>
    <path id="path6" d="M2.578,122.868v-7.08h.738l2.95,4.947,2.961-4.947h.737v7.08H9.227V117.2l-2.961,4.841L3.316,117.2v5.668Zm25.314-7.078a3.692,3.692,0,0,1,1.292.223,2.952,2.952,0,0,1,1.056.669,3.044,3.044,0,0,1,.712,1.115,4.764,4.764,0,0,1,0,3.059,3.067,3.067,0,0,1-.712,1.12,2.941,2.941,0,0,1-1.057.67,3.684,3.684,0,0,1-1.291.223,4.257,4.257,0,0,1-1.318-.195,2.707,2.707,0,0,1-1.761-1.717,5.326,5.326,0,0,1,0-3.258,2.712,2.712,0,0,1,1.764-1.716A4.313,4.313,0,0,1,27.892,115.79Zm0,.707a2.77,2.77,0,0,0-1.309.31,2.27,2.27,0,0,0-.94.946,3.739,3.739,0,0,0,0,3.148,2.263,2.263,0,0,0,.94.949,2.77,2.77,0,0,0,1.309.31,2.484,2.484,0,0,0,2.223-1.334,3.377,3.377,0,0,0,0-3,2.473,2.473,0,0,0-.942-.986A2.505,2.505,0,0,0,27.892,116.5Zm17.263-.709h5.909v.709H48.492v6.371h-.748V116.5H45.155Zm23.486,0a3.69,3.69,0,0,1,1.291.223,2.945,2.945,0,0,1,1.056.669A3.024,3.024,0,0,1,71.7,117.8a4.75,4.75,0,0,1,0,3.059,3.047,3.047,0,0,1-.712,1.12,2.949,2.949,0,0,1-1.056.67,3.691,3.691,0,0,1-1.291.223,4.257,4.257,0,0,1-1.318-.195,2.7,2.7,0,0,1-1.761-1.718,5.323,5.323,0,0,1,0-3.257,2.806,2.806,0,0,1,.709-1.1,2.777,2.777,0,0,1,1.054-.614A4.289,4.289,0,0,1,68.641,115.79Zm0,.707a2.77,2.77,0,0,0-1.309.31,2.27,2.27,0,0,0-.94.946,3.731,3.731,0,0,0,0,3.148,2.267,2.267,0,0,0,.94.949,2.77,2.77,0,0,0,1.309.31,2.484,2.484,0,0,0,2.223-1.334,3.377,3.377,0,0,0,0-3,2.478,2.478,0,0,0-.942-.986A2.506,2.506,0,0,0,68.641,116.5Zm18.447,0v2.826h2.088a1.74,1.74,0,0,0,.859-.2,1.363,1.363,0,0,0,.54-.525,1.4,1.4,0,0,0,0-1.379,1.327,1.327,0,0,0-.542-.525,1.76,1.76,0,0,0-.859-.2H87.088Zm-.737,6.371V115.79h2.961a2.321,2.321,0,0,1,1.206.3,1.955,1.955,0,0,1,.755.785,2.249,2.249,0,0,1,0,2.072,1.961,1.961,0,0,1-.755.785,2.32,2.32,0,0,1-1.206.3l2.215,2.838h-.863l-2.225-2.838h-1.35v2.838Zm19.662-1.893h.862a.769.769,0,0,0,.291.623,1.754,1.754,0,0,0,.715.34,3.632,3.632,0,0,0,.844.1,1.887,1.887,0,0,0,1.124-.342,1.23,1.23,0,0,0,.478-1.074.741.741,0,0,0-.473-.644c-.315-.167-.846-.4-1.593-.7a8.241,8.241,0,0,1-1.683-.85,1.2,1.2,0,0,1-.565-1,1.407,1.407,0,0,1,.379-1.008,2.207,2.207,0,0,1,.994-.582,4.634,4.634,0,0,1,1.338-.184,2.986,2.986,0,0,1,.853.13,3.071,3.071,0,0,1,.8.37,2.008,2.008,0,0,1,.587.569,1.236,1.236,0,0,1,.22.705h-.862a.788.788,0,0,0-.235-.574,1.484,1.484,0,0,0-.608-.362,2.4,2.4,0,0,0-.758-.122c-.26,0-.483.006-.67.021a2.148,2.148,0,0,0-.554.119.969.969,0,0,0-.452.322.945.945,0,0,0-.173.6.855.855,0,0,0,.511.759,11.973,11.973,0,0,0,1.6.69,7.967,7.967,0,0,1,1.645.776,1.125,1.125,0,0,1,.557.969,2.12,2.12,0,0,1-.269,1.041,1.974,1.974,0,0,1-.824.785,2.891,2.891,0,0,1-1.371.3,4.555,4.555,0,0,1-1.509-.216,1.9,1.9,0,0,1-.907-.614,1.537,1.537,0,0,1-.3-.943Z" transform="translate(-0.532 -23.686)" fill="#fff" fill-rule="evenodd"></path>
    <path id="path6_-_Contorno" data-name="path6 - Contorno" d="M92.175,123.183H90.506l-2.225-2.838H87.4v2.838H86.03v-7.714h3.279a2.64,2.64,0,0,1,1.369.344,2.275,2.275,0,0,1,.875.911,2.567,2.567,0,0,1,0,2.366,2.279,2.279,0,0,1-.875.912,2.391,2.391,0,0,1-.762.287Zm-1.359-.636h.057l-2.215-2.838h.651a2.017,2.017,0,0,0,1.044-.254,1.653,1.653,0,0,0,.636-.659,1.931,1.931,0,0,0,0-1.779,1.649,1.649,0,0,0-.636-.658,2.018,2.018,0,0,0-1.044-.254H86.666v6.443h.1V119.71H88.59Zm-22.177.636a4.591,4.591,0,0,1-1.416-.21,3.018,3.018,0,0,1-1.96-1.909,5.634,5.634,0,0,1,0-3.481,3.025,3.025,0,0,1,1.965-1.907,4.62,4.62,0,0,1,1.413-.208,4.028,4.028,0,0,1,1.4.242,3.268,3.268,0,0,1,1.168.74,3.35,3.35,0,0,1,.786,1.229,5.065,5.065,0,0,1,0,3.283,3.379,3.379,0,0,1-.787,1.236,3.273,3.273,0,0,1-1.168.741A4.028,4.028,0,0,1,68.638,123.183Zm0-7.078a3.987,3.987,0,0,0-1.219.177,2.45,2.45,0,0,0-.936.545,2.506,2.506,0,0,0-.627.98,5.013,5.013,0,0,0,0,3.034,2.384,2.384,0,0,0,1.561,1.527,3.959,3.959,0,0,0,1.22.18,3.4,3.4,0,0,0,1.181-.2,2.642,2.642,0,0,0,.943-.6,2.749,2.749,0,0,0,.637-1.006,4.436,4.436,0,0,0,0-2.834,2.721,2.721,0,0,0-.636-1,2.639,2.639,0,0,0-.944-.6A3.4,3.4,0,0,0,68.638,116.105Zm-19.831,7.078H47.423v-6.371H44.835v-1.344H51.38v1.344H48.807Zm-.748-.636h.113v-6.371h2.573V116.1H45.47v.073h2.589Zm-20.169.636a4.591,4.591,0,0,1-1.416-.21,3.024,3.024,0,0,1-1.96-1.907,5.636,5.636,0,0,1,0-3.481,3.029,3.029,0,0,1,1.964-1.908,4.644,4.644,0,0,1,1.413-.208,4.03,4.03,0,0,1,1.4.242,3.273,3.273,0,0,1,1.168.74,3.371,3.371,0,0,1,.786,1.228,5.079,5.079,0,0,1,0,3.283,3.4,3.4,0,0,1-.787,1.236,3.265,3.265,0,0,1-1.169.742A4.021,4.021,0,0,1,27.889,123.183Zm0-7.078a4.009,4.009,0,0,0-1.219.177,2.452,2.452,0,0,0-.935.545,2.506,2.506,0,0,0-.628.98,5.016,5.016,0,0,0,0,3.036,2.527,2.527,0,0,0,.627.981,2.467,2.467,0,0,0,.934.545,3.959,3.959,0,0,0,1.22.18,3.388,3.388,0,0,0,1.181-.2,2.634,2.634,0,0,0,.944-.6,2.77,2.77,0,0,0,.638-1.007,4.45,4.45,0,0,0,0-2.834,2.741,2.741,0,0,0-.636-1,2.643,2.643,0,0,0-.944-.6,3.4,3.4,0,0,0-1.182-.2Zm-17.61,7.078H8.907v-4.857l-2.643,4.322L3.631,118.33v4.853H2.258v-7.716H3.494l2.77,4.645,2.78-4.645h1.235Zm-.737-.636h.1V116.1h-.1Zm-6.649,0H3V116.1h-.1Zm.125-6.444,3.246,5.325L9.521,116.1H9.4l-3.141,5.249L3.133,116.1Zm105.7,6.96a4.885,4.885,0,0,1-1.615-.234,2.214,2.214,0,0,1-1.055-.722,1.858,1.858,0,0,1-.36-1.135v-.318h1.5v.318a.452.452,0,0,0,.176.378,1.433,1.433,0,0,0,.587.276,3.333,3.333,0,0,0,.769.094,1.561,1.561,0,0,0,.939-.283.925.925,0,0,0,.345-.815c0-.055,0-.2-.306-.364s-.851-.4-1.56-.683a8.574,8.574,0,0,1-1.75-.887,1.5,1.5,0,0,1-.7-1.26,1.722,1.722,0,0,1,.466-1.226,2.525,2.525,0,0,1,1.135-.668,4.971,4.971,0,0,1,1.429-.2,3.312,3.312,0,0,1,.944.143,3.41,3.41,0,0,1,.886.408,2.334,2.334,0,0,1,.678.66,1.55,1.55,0,0,1,.274.881v.318h-1.5v-.318a.47.47,0,0,0-.143-.351,1.178,1.178,0,0,0-.481-.283,2.1,2.1,0,0,0-.659-.106c-.261,0-.473.006-.646.02a1.837,1.837,0,0,0-.472.1.581.581,0,0,0-.414.618c0,.123.036.306.349.481a11.78,11.78,0,0,0,1.555.67,8.184,8.184,0,0,1,1.712.811,1.447,1.447,0,0,1,.7,1.233,2.442,2.442,0,0,1-.309,1.195,2.3,2.3,0,0,1-.952.911A3.214,3.214,0,0,1,108.722,123.063Zm-2.36-1.773a1.143,1.143,0,0,0,.2.436,1.6,1.6,0,0,0,.759.5,4.266,4.266,0,0,0,1.4.2,2.593,2.593,0,0,0,1.222-.259,1.648,1.648,0,0,0,.695-.658,1.814,1.814,0,0,0,.229-.887.809.809,0,0,0-.416-.705,7.71,7.71,0,0,0-1.578-.742q-.25-.093-.469-.179c.726.289,1.262.525,1.595.7a1.037,1.037,0,0,1,.642.925,1.534,1.534,0,0,1-.611,1.332,2.2,2.2,0,0,1-1.309.4,3.971,3.971,0,0,1-.917-.111,2.082,2.082,0,0,1-.843-.4,1.093,1.093,0,0,1-.365-.551Zm2.36-5.319a4.339,4.339,0,0,0-1.247.171,1.9,1.9,0,0,0-.855.5,1.092,1.092,0,0,0-.292.788.879.879,0,0,0,.432.743,4.219,4.219,0,0,0,.375.236,1.13,1.13,0,0,1-.58-.98,1.257,1.257,0,0,1,.24-.791,1.288,1.288,0,0,1,.6-.427,2.473,2.473,0,0,1,.636-.137c.19-.015.417-.022.695-.022a2.732,2.732,0,0,1,.857.138,1.8,1.8,0,0,1,.735.441,1.112,1.112,0,0,1,.283.479h.214a.994.994,0,0,0-.109-.209,1.683,1.683,0,0,0-.5-.481,2.735,2.735,0,0,0-.721-.332A2.677,2.677,0,0,0,108.722,115.972Zm-40.084,6.5a3.1,3.1,0,0,1-1.457-.347,2.589,2.589,0,0,1-1.071-1.077,4.043,4.043,0,0,1,0-3.454,2.593,2.593,0,0,1,1.071-1.075,3.1,3.1,0,0,1,1.457-.346,2.833,2.833,0,0,1,1.441.386,2.8,2.8,0,0,1,1.062,1.109,3.693,3.693,0,0,1,0,3.3,2.8,2.8,0,0,1-2.5,1.5Zm0-5.664a2.437,2.437,0,0,0-1.161.274,1.942,1.942,0,0,0-.809.818,3.422,3.422,0,0,0,0,2.843,1.938,1.938,0,0,0,.808.819,2.437,2.437,0,0,0,1.161.274,2.166,2.166,0,0,0,1.944-1.167,3.062,3.062,0,0,0,0-2.7,2.176,2.176,0,0,0-1.944-1.164Zm-40.749,5.664a3.1,3.1,0,0,1-1.457-.347,2.583,2.583,0,0,1-1.071-1.077,4.05,4.05,0,0,1,0-3.454,2.593,2.593,0,0,1,1.071-1.075,3.1,3.1,0,0,1,1.457-.346,2.833,2.833,0,0,1,1.441.386,2.8,2.8,0,0,1,1.062,1.109,3.693,3.693,0,0,1,0,3.3,2.8,2.8,0,0,1-2.5,1.5Zm0-5.664a2.437,2.437,0,0,0-1.161.274,1.942,1.942,0,0,0-.809.818,3.43,3.43,0,0,0,0,2.843,1.958,1.958,0,0,0,.808.819,2.437,2.437,0,0,0,1.162.274,2.166,2.166,0,0,0,1.944-1.167,3.062,3.062,0,0,0,0-2.7,2.176,2.176,0,0,0-1.944-1.164Zm61.284,2.826H86.768v-3.462h2.406a2.082,2.082,0,0,1,1.012.238,1.646,1.646,0,0,1,.668.651,1.719,1.719,0,0,1,0,1.687,1.678,1.678,0,0,1-.663.647A2.06,2.06,0,0,1,89.174,119.638ZM87.4,119h1.77a1.437,1.437,0,0,0,.7-.159,1.053,1.053,0,0,0,.417-.4,1.084,1.084,0,0,0,0-1.069,1.009,1.009,0,0,0-.417-.4,1.457,1.457,0,0,0-.705-.159H87.4Z" transform="translate(-0.529 -23.683)" fill="#fff"></path>
  </g>
</svg>
