<?xml version="1.0" encoding="UTF-8"?>
<svg xmlns="http://www.w3.org/2000/svg" width="138" height="100" viewBox="0 0 138 100">
  <g id="logo_hyundai" transform="translate(1196 -2119)">
    <rect id="Rectángulo_61" data-name="Rectángulo 61" width="138" height="100" transform="translate(-1196 2119)" fill="none"></rect>
    <g id="logo_hyundai-2" data-name="logo_hyundai" transform="translate(-1448.382 1781.469)">
      <path id="Trazado_77" data-name="Trazado 77" d="M261.4,365.128a14.506,14.506,0,0,0-2.019,12.84,19.93,19.93,0,0,0,6.421,9.083,44.02,44.02,0,0,0,13.006,7.537,85.375,85.375,0,0,0,28.505,5.455,101.317,101.317,0,0,0,14.234-.524,90.435,90.435,0,0,0,14.474-2.718,57.9,57.9,0,0,0,17.369-7.692,26.752,26.752,0,0,0,8.235-8.311,14.486,14.486,0,0,0,1.957-10.857,17.536,17.536,0,0,0-4.543-8.232,37.517,37.517,0,0,0-11.728-8.168,68.567,68.567,0,0,0-16.33-5.21,89.786,89.786,0,0,0-11.911-1.569c-.915-.048-1.808-.149-2.712-.231H307.6a3.5,3.5,0,0,1-.437.1c-1.5.1-2.985.158-4.475.3a89.508,89.508,0,0,0-13.97,2.335,63.114,63.114,0,0,0-17.986,7.221,29.128,29.128,0,0,0-9.328,8.635m61.027,18.453a18.013,18.013,0,0,1-6.072,10.815,7.14,7.14,0,0,1-4.284,1.617c-1.107.09-2.228.124-2.893.152a90.839,90.839,0,0,1-11.193-.935,80.6,80.6,0,0,1-10.967-2.143c-1.239-.346-2.459-.749-3.639-1.186-.983-.4-1.011-1-.2-1.648a64.492,64.492,0,0,1,26.2-12.356,25.451,25.451,0,0,1,7.635-.853c1.94.13,3.715.693,4.785,2.526a5.693,5.693,0,0,1,.622,4.011M346.871,363.4c.42-.822.837-1.659,1.27-2.481.552-1.05,1.118-1.307,2.171-.769a15.44,15.44,0,0,1,8.973,11.936,7.94,7.94,0,0,1,0,1.214,11.715,11.715,0,0,1-2.7,7.472,26.288,26.288,0,0,1-8.5,6.931,55.908,55.908,0,0,1-17.752,6.171c-.259.034-.769-.042-.8-.163a1.211,1.211,0,0,1,.1-.977c.8-1.146,1.662-2.259,2.518-3.388a98.935,98.935,0,0,0,8.033-12.789c2.34-4.326,4.467-8.753,6.683-13.156m-41.849-10.06a9.692,9.692,0,0,1,7.058-2.963,74.03,74.03,0,0,1,20.467,2.3c1.817.437,3.622,1.014,5.413,1.583a7.453,7.453,0,0,1,1.611.794.918.918,0,0,1,.146,1.543,4.849,4.849,0,0,1-1.169.949,107.3,107.3,0,0,1-22.337,10.607,35.516,35.516,0,0,1-9.182,1.9,8.725,8.725,0,0,1-3.974-.642c-2.036-.929-2.664-2.614-2.622-5.151a17.716,17.716,0,0,1,4.588-10.914m-15.169-.3a14.052,14.052,0,0,1,3.3-.3c.935,0,1.146.451.589,1.2-1.535,2.033-3.121,3.985-4.622,6.024A94.123,94.123,0,0,0,275.9,383.66a10.035,10.035,0,0,1-1.121,2.247,1.757,1.757,0,0,1-2.4.8,10.125,10.125,0,0,1-3.371-2.279,19.267,19.267,0,0,1-5.219-7.43,36.333,36.333,0,0,1-.828-3.611.646.646,0,0,1,.155-.042,12.21,12.21,0,0,1,3.228-7.818,28.3,28.3,0,0,1,7.835-6.267,64.687,64.687,0,0,1,15.671-6.23" transform="translate(11.454 0)" fill="#fff"></path>
      <path id="Trazado_78" data-name="Trazado 78" d="M300.135,368.362a7.773,7.773,0,0,0-1.158-.079H284.368c-.206,0-.42.034-.679.045v19.343c0,.239-.028.5-.037.746h16.6c.211-.082.434-.161.642-.242a3.173,3.173,0,0,0,2.228-2.608,6.325,6.325,0,0,0,.144-1.5c.014-2.459,0-4.884,0-7.323,0-1.45.042-2.893-.023-4.329-.076-2.5-1.005-3.653-3.112-4.056M297.352,381.7c-.068,1.453-.465,1.828-1.89,1.845h-5.813V373.088c2.092,0,4.157-.023,6.219.014.879.023,1.225.448,1.38,1.312a3.7,3.7,0,0,1,.1.859c.008,2.039,0,4.1,0,6.143,0,.11.008.186,0,.279" transform="translate(56.802 39.511)" fill="#fff"></path>
      <path id="Trazado_79" data-name="Trazado 79" d="M310.873,369v-.7c-.268-.011-.439-.037-.608-.037-4.63.025-9.275.037-13.913.062-.2,0-.383.034-.575.045a4.131,4.131,0,0,0-4.16,4.2c-.059,5.309-.023,10.6-.023,15.893h5.72v-4.4h7.714v4.4h5.853c-.008-.228-.02-.465-.02-.7,0-6.25.011-12.519.011-18.766m-5.853,9.962h-7.706c0-1.465-.042-2.923.028-4.377a1.3,1.3,0,0,1,1.3-1.327c1.515-.1,3.067-.073,4.594-.1.58-.011,1.177,0,1.78,0Z" transform="translate(71.206 39.471)" fill="#fff"></path>
      <path id="Trazado_80" data-name="Trazado 80" d="M286.909,368.272c-1.589,0-3.2.025-4.782-.017-.555-.006-.693.18-.684.7.02,4.374.02,8.779,0,13.161,0,1.138-.341,1.448-1.45,1.462h-6.2V368.32H267.83v.811c0,3.875-.014,7.745,0,11.621,0,2.583,0,5.146.014,7.717h16.733c.062-.011.107-.09.18-.1a3.062,3.062,0,0,0,2.676-2.884,9.1,9.1,0,0,0,.13-1.462c.02-5,.02-10.026.025-15.012v-.7c-.253-.011-.476-.037-.679-.037" transform="translate(28.049 39.46)" fill="#fff"></path>
      <path id="Trazado_81" data-name="Trazado 81" d="M295.46,376.51c0-1.574-.023-3.14-.121-4.675a3.3,3.3,0,0,0-2.479-3.194,10.05,10.05,0,0,0-2.4-.344c-4.734-.048-9.477-.042-14.212-.042-.161,0-.293.017-.513.037v5.746c0,4.816,0,9.612-.014,14.431h5.962c0-5.036,0-10.055-.02-15.093a.242.242,0,0,1,.369-.237c1.977-.008,3.982-.017,5.96-.008.929,0,1.335.4,1.335,1.335.011,4.568,0,9.151,0,13.719a.9.9,0,0,1-.051.284H295.5a1.249,1.249,0,0,1-.059-.329q.034-5.843.023-11.629" transform="translate(42.396 39.46)" fill="#fff"></path>
      <path id="Trazado_82" data-name="Trazado 82" d="M266.109,368.288c-.4,0-.341.282-.341.544v6.652h-7.678v-7.2h-.738c-1.656-.017-3.3-.023-4.971-.042v20.239h5.737v-7.92h7.72v7.92h5.971a.707.707,0,0,0,.011-.161V368.778c0-.138-.042-.293-.062-.47-1.915-.02-3.78,0-5.65-.02" transform="translate(0 39.444)" fill="#fff"></path>
      <path id="Trazado_83" data-name="Trazado 83" d="M276.293,368.286a.881.881,0,0,0-.56.389c-1.49,2.05-2.935,4.135-4.416,6.179a4.3,4.3,0,0,1-.383.518c-.155-.223-.248-.361-.341-.518-1.329-2.022-2.673-4.064-4-6.1a.8.8,0,0,0-.735-.442c-1.831,0-3.659-.023-5.495-.048h-.746c.214.313.315.49.434.656,2.163,3.25,4.27,6.545,6.529,9.745a6.324,6.324,0,0,1,1.284,4.323c-.13,1.819-.051,3.65-.065,5.472h5.968c0-2.459,0-4.943.028-7.416a1.824,1.824,0,0,1,.279-.918q3.891-5.631,7.8-11.277c.11-.149.2-.313.307-.49a.534.534,0,0,0-.211-.076c-1.879,0-3.78-.037-5.672.006" transform="translate(13.131 39.471)" fill="#fff"></path>
      <path id="Trazado_84" data-name="Trazado 84" d="M299.419,369.031c.031,6.224.023,12.468.023,18.693,0,.239-.051.5-.051.746h5.6v-20.1c-1.6-.048-3.225-.034-4.841-.113-.6-.025-.732.2-.732.774" transform="translate(85.389 39.459)" fill="#fff"></path>
    </g>
  </g>
</svg>
