<svg xmlns="http://www.w3.org/2000/svg" width="355.507" height="60" viewBox="0 0 355.507 60">
  <g id="logo_multinacional-service" transform="translate(-139.129 -129.76)">
    <path id="Trazado_1" data-name="Trazado 1" d="M328.775,155l3.9-24.418h7.956V164.97h-5.407V140.3l-3.95,24.665h-5.407L321.6,140.65v24.32h-4.994V130.577h7.955Z" transform="translate(-91.813 -0.423)" fill="#1a66a3"/>
    <path id="Trazado_2" data-name="Trazado 2" d="M384.485,130.578v26.529c0,2.458,1.143,3.343,2.962,3.343s2.965-.885,2.965-3.343V130.578h5.407v26.187c0,5.5-2.912,8.647-8.527,8.647s-8.524-3.144-8.524-8.647V130.578Z" transform="translate(-123.969 -0.423)" fill="#1a66a3"/>
    <path id="Trazado_3" data-name="Trazado 3" d="M426.482,130.578H432.2v29.478h9.41v4.913H426.482Z" transform="translate(-148.653 -0.423)" fill="#1a66a3"/>
    <path id="Trazado_4" data-name="Trazado 4" d="M458.475,130.578h17.676v4.913h-5.979v29.478h-5.718V135.491h-5.979Z" transform="translate(-165.203 -0.423)" fill="#1a66a3"/>
    <rect id="Rectángulo_1" data-name="Rectángulo 1" width="5.717" height="34.391" transform="translate(315.526 130.154)" fill="#1a66a3"/>
    <path id="Trazado_5" data-name="Trazado 5" d="M534.392,140.06v24.91h-5.146V130.578h7.175l5.874,20.585V130.578h5.094V164.97h-5.875Z" transform="translate(-201.814 -0.423)" fill="#1a66a3"/>
    <path id="Trazado_6" data-name="Trazado 6" d="M596.55,164.969h-5.771l-.988-6.238h-7.018l-.988,6.238h-5.25l5.824-34.391h8.369ZM583.5,154.062h5.511l-2.756-17.391Z" transform="translate(-226.277 -0.423)" fill="#1a66a3"/>
    <path id="Trazado_7" data-name="Trazado 7" d="M643.782,151.724v4.568c0,5.5-2.911,8.648-8.527,8.648s-8.526-3.146-8.526-8.648V138.41c0-5.5,2.912-8.649,8.526-8.649s8.527,3.146,8.527,8.649v3.34h-5.407v-3.684c0-2.455-1.144-3.39-2.964-3.39s-2.965.935-2.965,3.39v18.571c0,2.457,1.145,3.34,2.965,3.34s2.964-.883,2.964-3.34v-4.913Z" transform="translate(-252.243 -0.001)" fill="#1a66a3"/>
    <rect id="Rectángulo_2" data-name="Rectángulo 2" width="5.719" height="34.391" transform="translate(397.103 130.154)" fill="#1a66a3"/>
    <path id="Trazado_8" data-name="Trazado 8" d="M697.391,138.408c0-5.5,3.066-8.648,8.683-8.648s8.681,3.146,8.681,8.648v17.883c0,5.5-3.069,8.648-8.681,8.648s-8.683-3.146-8.683-8.648Zm5.717,18.228c0,2.457,1.145,3.39,2.965,3.39s2.962-.933,2.962-3.39V138.064c0-2.455-1.143-3.39-2.962-3.39s-2.965.935-2.965,3.39Z" transform="translate(-288.798)" fill="#1a66a3"/>
    <path id="Trazado_9" data-name="Trazado 9" d="M750.365,140.06v24.91h-5.146V130.578h7.173l5.876,20.585V130.578h5.094V164.97h-5.875Z" transform="translate(-313.54 -0.423)" fill="#1a66a3"/>
    <path id="Trazado_10" data-name="Trazado 10" d="M812.522,164.969h-5.771l-.988-6.238h-7.017l-.988,6.238h-5.251l5.821-34.391H806.7Zm-13.049-10.907h5.511l-2.756-17.391Z" transform="translate(-338.003 -0.423)" fill="#1a66a3"/>
    <path id="Trazado_11" data-name="Trazado 11" d="M843.781,130.578H849.5v29.478h9.409v4.913H843.781Z" transform="translate(-364.528 -0.423)" fill="#1a66a3"/>
    <path id="Trazado_12" data-name="Trazado 12" d="M439.426,234.256H318.747a2.27,2.27,0,0,1-2.271-2.269V218.153a2.38,2.38,0,0,1,2.379-2.379H445.286a2.567,2.567,0,0,1,2.445,3.34L444.009,230.9a4.8,4.8,0,0,1-4.584,3.36" transform="translate(-91.744 -44.496)" fill="#2b2c2c"/>
    <path id="Trazado_13" data-name="Trazado 13" d="M175.4,195.158c-8.619,4.8-26.124,14.694-36.272,27.45,11.906-20.685,30.689-27.934,36.272-27.45" transform="translate(0 -33.82)" fill="#1a66a3"/>
    <path id="Trazado_14" data-name="Trazado 14" d="M236.046,177.642a21.972,21.972,0,0,0-9.73.769,25.473,25.473,0,0,1,7.486,1.472Z" transform="translate(-45.103 -24.652)" fill="#1a66a3"/>
    <path id="Trazado_15" data-name="Trazado 15" d="M180.215,180.268a23.988,23.988,0,1,0-10.759-26.689,45.735,45.735,0,0,0-15.972,11.457c24.727-15.211,45.526-15.045,48.175-9.4,1.926.218,6.479,1.291,7.173,6.673-7.393-1.245-33.857,9.3-47.695,26.375,8.635-6.672,24.14-16.633,34.3-18.988-8.1,4.416-12.509,7.8-15.217,10.57" transform="translate(-7.426 -3.099)" fill="#1a66a3"/>
    <path id="Trazado_16" data-name="Trazado 16" d="M325.181,230.393v-.515l2.107-.227v.537c0,1.054.537,1.692,1.4,1.692a1.3,1.3,0,0,0,1.4-1.382c0-.908-.372-1.57-2.005-3.118-2.168-2.044-2.787-3.162-2.787-4.751,0-2.148,1.24-3.551,3.325-3.551s3.324,1.4,3.324,3.57v.374l-2.1.226v-.413c0-1.114-.435-1.694-1.2-1.694s-1.2.476-1.2,1.385.454,1.57,2,3.118c2.107,2.105,2.79,3.16,2.79,4.75a3.532,3.532,0,1,1-7.065,0" transform="translate(-96.248 -46.205)" fill="#fff"/>
    <path id="Trazado_17" data-name="Trazado 17" d="M342.813,219.5h6.215v2.065H345V225.6h3.2v2.063H345V231.9h4.027v2.066h-6.215Z" transform="translate(-105.369 -46.426)" fill="#fff"/>
    <path id="Trazado_18" data-name="Trazado 18" d="M363.564,233.959l-1.591-5.969h-1.135v5.969h-2.189V219.5h3.429a3.226,3.226,0,0,1,3.427,3.449v1.592A3.283,3.283,0,0,1,364,227.494l1.839,6.465Zm-2.726-8.035h1.135a1.229,1.229,0,0,0,1.344-1.342V222.91a1.229,1.229,0,0,0-1.344-1.343h-1.135Z" transform="translate(-113.561 -46.424)" fill="#fff"/>
    <path id="Trazado_19" data-name="Trazado 19" d="M382.591,219.5l-2.4,14.458h-2.934l-2.4-14.458H377.1l1.652,11.359L380.4,219.5Z" transform="translate(-121.95 -46.426)" fill="#fff"/>
    <rect id="Rectángulo_3" data-name="Rectángulo 3" width="2.189" height="14.458" transform="translate(261.923 173.076)" fill="#fff"/>
    <path id="Trazado_20" data-name="Trazado 20" d="M401.785,230.52v-8.013a3.428,3.428,0,0,1,6.856,0V224.2h-2.147v-1.694a1.264,1.264,0,1,0-2.52,0v8.013a1.264,1.264,0,1,0,2.52,0v-2.065h2.147v2.065a3.428,3.428,0,1,1-6.856,0" transform="translate(-135.876 -46.207)" fill="#fff"/>
    <path id="Trazado_21" data-name="Trazado 21" d="M419.29,219.5h6.216v2.065h-4.027V225.6h3.2v2.063h-3.2V231.9h4.027v2.066H419.29Z" transform="translate(-144.932 -46.426)" fill="#fff"/>
    <path id="Trazado_22" data-name="Trazado 22" d="M442.443,230.52v-8.013a3.428,3.428,0,0,1,6.856,0V224.2h-2.147v-1.694a1.265,1.265,0,1,0-2.522,0v8.013a1.264,1.264,0,1,0,2.522,0v-2.065H449.3v2.065a3.428,3.428,0,1,1-6.856,0" transform="translate(-156.909 -46.207)" fill="#fff"/>
    <path id="Trazado_23" data-name="Trazado 23" d="M459.733,230.457v-7.89a3.511,3.511,0,0,1,7.022,0v7.89a3.511,3.511,0,0,1-7.022,0m4.832,0v-7.89a1.326,1.326,0,1,0-2.644,0v7.89a1.326,1.326,0,1,0,2.644,0" transform="translate(-165.854 -46.206)" fill="#fff"/>
    <path id="Trazado_24" data-name="Trazado 24" d="M482.921,233.959l-1.591-5.969H480.2v5.969h-2.188V219.5h3.428a3.227,3.227,0,0,1,3.429,3.449v1.592a3.287,3.287,0,0,1-1.509,2.953l1.84,6.465Zm-2.726-8.035h1.135a1.229,1.229,0,0,0,1.344-1.342V222.91a1.229,1.229,0,0,0-1.344-1.343H480.2Z" transform="translate(-175.307 -46.424)" fill="#fff"/>
    <path id="Trazado_25" data-name="Trazado 25" d="M495.769,219.505H499.2a3.225,3.225,0,0,1,3.429,3.448v1.694A3.226,3.226,0,0,1,499.2,228.1h-1.239v5.865h-2.188Zm3.323,6.525a1.229,1.229,0,0,0,1.344-1.344v-1.775a1.229,1.229,0,0,0-1.344-1.344h-1.135v4.462Z" transform="translate(-184.496 -46.427)" fill="#fff"/>
    <path id="Trazado_26" data-name="Trazado 26" d="M519.6,230.393v-.515l2.1-.227v.537c0,1.054.54,1.692,1.405,1.692a1.3,1.3,0,0,0,1.405-1.382c0-.908-.37-1.57-2.005-3.118-2.166-2.044-2.788-3.162-2.788-4.751,0-2.148,1.24-3.551,3.328-3.551s3.324,1.4,3.324,3.57v.374l-2.107.226v-.413c0-1.114-.434-1.694-1.2-1.694s-1.2.476-1.2,1.385.456,1.57,2,3.118c2.1,2.105,2.788,3.16,2.788,4.75a3.532,3.532,0,1,1-7.063,0" transform="translate(-196.826 -46.205)" fill="#fff"/>
    <path id="Trazado_27" data-name="Trazado 27" d="M540.8,230.76h-2.354l-.475,3.2h-2.187l2.393-14.455h2.934l2.395,14.455h-2.23Zm-.289-2.107-.888-6.05-.887,6.05Z" transform="translate(-205.196 -46.427)" fill="#fff"/>
    <path id="Trazado_28" data-name="Trazado 28" d="M554.01,230.52v-8.013a3.428,3.428,0,0,1,6.856,0V224.2H558.72v-1.694a1.264,1.264,0,1,0-2.52,0v8.013a1.264,1.264,0,1,0,2.52,0v-2.065h2.146v2.065a3.428,3.428,0,1,1-6.856,0" transform="translate(-214.625 -46.207)" fill="#fff"/>
    <path id="Trazado_29" data-name="Trazado 29" d="M596.412,230.457v-7.89a3.511,3.511,0,0,1,7.022,0v7.89a3.511,3.511,0,0,1-7.022,0m4.834,0v-7.89a1.326,1.326,0,1,0-2.644,0v7.89a1.326,1.326,0,1,0,2.644,0" transform="translate(-236.56 -46.206)" fill="#2b2c2c"/>
    <path id="Trazado_30" data-name="Trazado 30" d="M614.691,219.505h3.427a3.225,3.225,0,0,1,3.429,3.448v1.694a3.226,3.226,0,0,1-3.429,3.448h-1.239v5.865h-2.188Zm3.323,6.525a1.228,1.228,0,0,0,1.343-1.344v-1.775a1.228,1.228,0,0,0-1.343-1.344h-1.135v4.462Z" transform="translate(-246.016 -46.427)" fill="#2b2c2c"/>
    <path id="Trazado_31" data-name="Trazado 31" d="M631.848,219.5h6.216v2.065h-4.027V225.6h3.2v2.063h-3.2V231.9h4.027v2.066h-6.216Z" transform="translate(-254.891 -46.426)" fill="#2b2c2c"/>
    <path id="Trazado_32" data-name="Trazado 32" d="M652.6,233.959l-1.591-5.969h-1.135v5.969h-2.187V219.5h3.427a3.227,3.227,0,0,1,3.43,3.449v1.592a3.287,3.287,0,0,1-1.509,2.953l1.84,6.465Zm-2.727-8.035h1.135a1.229,1.229,0,0,0,1.344-1.342V222.91a1.229,1.229,0,0,0-1.344-1.343h-1.135Z" transform="translate(-263.085 -46.424)" fill="#2b2c2c"/>
    <path id="Trazado_33" data-name="Trazado 33" d="M669.007,230.76h-2.353l-.474,3.2H663.99l2.394-14.455h2.935l2.395,14.455h-2.23Zm-.288-2.107-.888-6.05-.889,6.05Z" transform="translate(-271.519 -46.427)" fill="#2b2c2c"/>
    <path id="Trazado_34" data-name="Trazado 34" d="M682.649,219.5h3.43a3.226,3.226,0,0,1,3.427,3.449v7.561a3.226,3.226,0,0,1-3.427,3.448h-3.43Zm3.325,12.392a1.228,1.228,0,0,0,1.343-1.343v-7.639a1.229,1.229,0,0,0-1.343-1.344h-1.135v10.327Z" transform="translate(-281.172 -46.425)" fill="#2b2c2c"/>
    <path id="Trazado_35" data-name="Trazado 35" d="M700.153,230.457v-7.89a3.511,3.511,0,0,1,7.022,0v7.89a3.511,3.511,0,0,1-7.022,0m4.832,0v-7.89a1.326,1.326,0,1,0-2.644,0v7.89a1.326,1.326,0,1,0,2.644,0" transform="translate(-290.227 -46.206)" fill="#2b2c2c"/>
    <path id="Trazado_36" data-name="Trazado 36" d="M723.34,233.959l-1.591-5.969h-1.135v5.969h-2.189V219.5h3.429a3.226,3.226,0,0,1,3.427,3.449v1.592a3.283,3.283,0,0,1-1.508,2.953l1.839,6.465Zm-2.727-8.035h1.135a1.229,1.229,0,0,0,1.344-1.342V222.91a1.229,1.229,0,0,0-1.344-1.343h-1.135Z" transform="translate(-299.679 -46.424)" fill="#2b2c2c"/>
    <path id="Trazado_37" data-name="Trazado 37" d="M743.888,219.5h2.188V231.9h3.9v2.066h-6.093Z" transform="translate(-312.852 -46.426)" fill="#2b2c2c"/>
    <path id="Trazado_38" data-name="Trazado 38" d="M758.779,230.457v-7.89a3.511,3.511,0,0,1,7.022,0v7.89a3.511,3.511,0,0,1-7.022,0m4.834,0v-7.89a1.326,1.326,0,1,0-2.644,0v7.89a1.326,1.326,0,1,0,2.644,0" transform="translate(-320.555 -46.206)" fill="#2b2c2c"/>
    <path id="Trazado_39" data-name="Trazado 39" d="M781.5,223.783v-1.218a1.326,1.326,0,1,0-2.645,0v7.891a1.326,1.326,0,1,0,2.645,0V227.9h-1.322v-2.066h3.51v4.627a3.511,3.511,0,0,1-7.021,0v-7.891a3.511,3.511,0,0,1,7.021,0v1.218Z" transform="translate(-329.809 -46.204)" fill="#2b2c2c"/>
    <rect id="Rectángulo_4" data-name="Rectángulo 4" width="2.188" height="14.458" transform="translate(455.597 173.076)" fill="#2b2c2c"/>
    <path id="Trazado_40" data-name="Trazado 40" d="M802.391,230.393v-.515l2.1-.227v.537c0,1.054.539,1.692,1.405,1.692a1.3,1.3,0,0,0,1.4-1.382c0-.908-.37-1.57-2.005-3.118-2.166-2.044-2.788-3.162-2.788-4.751,0-2.148,1.24-3.551,3.328-3.551s3.324,1.4,3.324,3.57v.374l-2.107.226v-.413c0-1.114-.435-1.694-1.2-1.694s-1.2.476-1.2,1.385.456,1.57,2,3.118c2.105,2.105,2.789,3.16,2.789,4.75a3.532,3.532,0,1,1-7.063,0" transform="translate(-343.116 -46.205)" fill="#2b2c2c"/>
    <path id="Trazado_41" data-name="Trazado 41" d="M818.438,219.5h6.98v2.065h-2.4v12.392h-2.188V221.569h-2.4Z" transform="translate(-351.418 -46.426)" fill="#2b2c2c"/>
    <rect id="Rectángulo_5" data-name="Rectángulo 5" width="2.189" height="14.458" transform="translate(475.282 173.076)" fill="#2b2c2c"/>
    <path id="Trazado_42" data-name="Trazado 42" d="M843.813,230.52v-8.013a3.428,3.428,0,0,1,6.856,0V224.2h-2.146v-1.694a1.264,1.264,0,1,0-2.52,0v8.013a1.264,1.264,0,1,0,2.52,0v-2.065h2.146v2.065a3.428,3.428,0,1,1-6.856,0" transform="translate(-364.545 -46.207)" fill="#2b2c2c"/>
    <path id="Trazado_43" data-name="Trazado 43" d="M861.1,230.457v-7.89a3.511,3.511,0,0,1,7.022,0v7.89a3.511,3.511,0,0,1-7.022,0m4.834,0v-7.89a1.326,1.326,0,1,0-2.644,0v7.89a1.326,1.326,0,1,0,2.644,0" transform="translate(-373.489 -46.206)" fill="#2b2c2c"/>
  </g>
</svg>
