<?xml version="1.0" encoding="UTF-8"?>
<svg xmlns="http://www.w3.org/2000/svg" width="107.654" height="100" viewBox="0 0 107.654 100">
  <g id="logo_hino" transform="translate(-474.706 -346.188)">
    <path id="Trazado_85" data-name="Trazado 85" d="M513.632,371.3h-10.71c-3.1,0-6.036,1.535-6.036,5.423v3.037c0,3.29,1.392,4.623,4.75,5.177a45.63,45.63,0,0,0,13.278,0c3.372-.554,4.781-1.888,4.781-5.177v-3.037c0-3.888-2.948-5.423-6.063-5.423m-.322,8.149a2,2,0,0,1-2.014,2h-6.125a2,2,0,0,1-2.021-2V376.7a1.96,1.96,0,0,1,.6-1.426,1.987,1.987,0,0,1,1.426-.595H511.3a1.985,1.985,0,0,1,2.014,2.021Z" transform="translate(53.666 60.764)" fill="#fff"></path>
    <path id="Trazado_86" data-name="Trazado 86" d="M491.908,373.532a1.586,1.586,0,0,1-1.594,1.737h-5.393a1.6,1.6,0,0,1-1.59-1.737V371.45h-5.813v12.5h5.813V381.49a1.6,1.6,0,0,1,1.59-1.72h5.393a1.587,1.587,0,0,1,1.594,1.72v2.462h6.59v-12.5h-6.59Z" transform="translate(6.806 61.122)" fill="#fff"></path>
    <path id="Trazado_87" data-name="Trazado 87" d="M538.648,346.2c-6.552.26-5.519,3.464-1.258,4.88s23.728,7.639,25.2,19.522c.568,4.4-7.574,5.044-34.055,5.047-26.6,0-34.623-.643-34.076-5.047,1.481-11.883,20.931-18.11,25.206-19.522s5.287-4.62-1.262-4.88c-7.906-.318-43.692,7.68-43.692,34.486-.017,26.71,35.786,34.811,43.692,34.486,6.548-.25,5.536-3.464,1.262-4.876s-23.725-7.653-25.206-19.529c-.547-4.411,7.65-5.1,34.076-5.04,26.481.051,34.623.629,34.055,5.04-1.467,11.876-20.931,18.107-25.2,19.529s-5.293,4.627,1.258,4.876c7.9.325,43.712-7.8,43.712-34.486,0-26.806-35.813-34.8-43.712-34.486m-9.978,30.9c34.288,0,32.25-.578,35.751-2.137.756-.328,1.245-.4,1.518-.222s.64.407,1.289.773c.619.369.954.821.034,1.139-4.288,1.491-32.236,1.45-38.593,1.45s-34.308.041-38.59-1.45c-.92-.318-.585-.769.058-1.139.626-.366,1-.588,1.272-.773s.749-.106,1.5.222c3.519,1.559,1.481,2.137,35.762,2.137m51.632,4.387c-.089,2.079-.687.674-.763-.113a27.032,27.032,0,0,0-7.161-15.778c-.746-.769-1.193-.547-.64.414.534.958,5.383,7.321,4.965,15.88s-7.034,24.675-36.384,30.831c-.841.185-2.91,0-.038-.81,2.886-.828,22.234-5.14,30.5-19.067,7.749-13.1-4.521-11.647-10.672-11.773-5.591-.13-22.572-.024-30.348-.01v.01H527.6v-.01c-7.8-.014-24.775-.12-30.352.01-6.162.126-18.431-1.323-10.672,11.773,8.234,13.928,27.62,18.24,30.479,19.067,2.889.81.838.992-.041.81-29.323-6.155-35.97-22.285-36.394-30.831-.4-8.559,4.449-14.923,4.989-15.88s.089-1.183-.653-.414a27.273,27.273,0,0,0-7.181,15.778c-.038.786-.64,2.192-.722.113-.133-2.869,1.019-14.051,12.772-22.678a57.061,57.061,0,0,1,25.551-10.495c2.63-.465,5.334-.239.342,1.081-20.264,5.338-26.806,13.989-30.581,21.81-3.8,7.831,3.656,7.831,8.583,8,4.787.167,22.3.215,34.951.226,12.656-.01,30.167-.058,34.968-.226,4.9-.168,12.362-.168,8.579-8s-10.334-16.472-30.615-21.81c-4.965-1.32-2.271-1.546.359-1.081a57.012,57.012,0,0,1,25.554,10.495c11.753,8.628,12.909,19.809,12.786,22.678" transform="translate(0 0)" fill="#fff"></path>
    <path id="Línea_1" data-name="Línea 1" d="M1.725,12.5H-3.86V0H1.725Z" transform="translate(515.405 432.572)" fill="#fff"></path>
    <path id="Trazado_88" data-name="Trazado 88" d="M504.757,375.071c0,.633-.26.824-.763.824-.749,0-7.92-4.445-8.638-4.445h-6.429v12.512h6.429v-5.194a.779.779,0,0,1,.814-.834c.858,0,2.472.585,7.506,4.155,1.135.8,1.081,1.43,1.081,1.853v.021h6.4V371.45h-6.4Z" transform="translate(34.411 61.122)" fill="#fff"></path>
  </g>
</svg>
