<?xml version="1.0" encoding="UTF-8"?>
<svg xmlns="http://www.w3.org/2000/svg" width="140" height="102" viewBox="0 0 140 102">
  <g id="logo_isuzu" transform="translate(1010 -2118)">
    <rect id="Rectángulo_60" data-name="Rectángulo 60" width="140" height="102" transform="translate(-1010 2118)" fill="none"></rect>
    <g id="logo_isuzu-2" data-name="logo_isuzu" transform="translate(-1587.376 1907.171)">
      <path id="Trazado_89" data-name="Trazado 89" d="M583.177,249.832h-4.564a1.078,1.078,0,0,0-1.238,1.223v20.812a1.079,1.079,0,0,0,1.238,1.211l4.578.006a1.073,1.073,0,0,0,1.214-1.232v-20.8a1.076,1.076,0,0,0-1.229-1.223" transform="translate(0 0.006)" fill="#fff"></path>
      <path id="Trazado_90" data-name="Trazado 90" d="M605.249,261.231c-2.422-.775-15.468-4.894-16.072-5.079a.516.516,0,0,1-.418-.7c.047-.224.25-.321.642-.321l17.869,0c.825,0,1.2-.377,1.2-1.223v-2.858c0-.819-.362-1.223-1.208-1.223h-18.1c-5.015,0-7.171,2.746-7.171,5.94,0,2.528,1.229,4.593,4.481,5.683.666.227,16.255,5.165,16.726,5.312a.567.567,0,0,1,.433.716c-.077.247-.253.38-.625.38H583.178c-.84,0-1.24.389-1.24,1.217v2.769c0,.9.371,1.234,1.249,1.234,0,0,18.22.024,19.94-.006,4.561-.056,7.215-1.874,7.215-5.722,0-3.211-1.4-4.929-5.094-6.125" transform="translate(8.879 0.006)" fill="#fff"></path>
      <path id="Trazado_91" data-name="Trazado 91" d="M618.81,249.838l-4.62-.009c-.878,0-1.235.4-1.235,1.217v13.193c0,2.192-.333,3.482-3.338,3.58-.7.018-1.968.032-2.9.032s-1.995-.015-2.7-.032c-3-.1-3.536-1.388-3.536-3.58V251.046a1.064,1.064,0,0,0-1.223-1.208h-4.611c-.843,0-1.205.392-1.205,1.208,0,0,.006,11.658.006,14.3,0,3.674.822,7.645,7.743,7.722,2.525.032,5.524.068,5.524.068s2.811-.027,5.347-.068c7.325-.121,7.964-3.883,7.964-7.722V251.061a1.063,1.063,0,0,0-1.223-1.223" transform="translate(31.282 0)" fill="#fff"></path>
      <path id="Trazado_92" data-name="Trazado 92" d="M641.243,249.838l-4.635-.009c-.866,0-1.228.4-1.228,1.217v13.193c0,2.192-.333,3.482-3.332,3.58-.7.018-1.98.032-2.9.032s-2-.015-2.7-.032c-3.005-.1-3.538-1.388-3.538-3.58V251.046a1.061,1.061,0,0,0-1.22-1.208h-4.608c-.852,0-1.214.392-1.214,1.208v14.3c0,3.674.837,7.645,7.758,7.722,2.525.032,5.524.068,5.524.068s2.808-.027,5.33-.068c7.342-.121,7.975-3.883,7.975-7.722V251.061a1.056,1.056,0,0,0-1.214-1.223" transform="translate(74.919 0)" fill="#fff"></path>
      <path id="Trazado_93" data-name="Trazado 93" d="M631.509,267.863H611.66c-.356,0-.53-.133-.61-.374a.568.568,0,0,1,.442-.725c.457-.147,16.054-5.076,16.717-5.309,3.256-1.1,4.481-3.155,4.481-5.683,0-3.194-2.16-5.94-7.171-5.94h-18.1a1.066,1.066,0,0,0-1.226,1.223v2.858c0,.846.386,1.223,1.217,1.223l17.878,0c.386,0,.578.1.642.321a.536.536,0,0,1-.421.7c-.6.186-13.671,4.3-16.084,5.079-3.7,1.2-5.088,2.914-5.088,6.125,0,3.848,2.649,5.666,7.207,5.722,1.715.03,19.949,0,19.949,0,.872,0,1.246-.327,1.246-1.232V269.08c0-.828-.389-1.217-1.232-1.217" transform="translate(52.477 0.006)" fill="#fff"></path>
    </g>
  </g>
</svg>
