<svg xmlns="http://www.w3.org/2000/svg" width="308.106" height="52" viewBox="0 0 308.106 52">
  <g id="logo_multinacional-service_white" transform="translate(-139.129 -129.76)">
    <path id="Trazado_1" data-name="Trazado 1" d="M327.153,151.739l3.378-21.162h6.9v29.807H332.74V139.008l-3.423,21.376h-4.686l-3.695-21.077v21.077h-4.328V130.577H323.5Z" transform="translate(-103.235 -0.475)" fill="#fff"/>
    <path id="Trazado_2" data-name="Trazado 2" d="M383.723,130.578V153.57c0,2.13.99,2.9,2.567,2.9s2.57-.767,2.57-2.9V130.578h4.686v22.7c0,4.769-2.524,7.494-7.39,7.494s-7.388-2.725-7.388-7.494v-22.7Z" transform="translate(-139.392 -0.476)" fill="#fff"/>
    <path id="Trazado_3" data-name="Trazado 3" d="M426.482,130.578h4.956v25.548h8.156v4.258H426.482Z" transform="translate(-167.146 -0.476)" fill="#fff"/>
    <path id="Trazado_4" data-name="Trazado 4" d="M458.475,130.578h15.32v4.258h-5.182v25.548h-4.956V134.835h-5.182Z" transform="translate(-185.756 -0.476)" fill="#fff"/>
    <rect id="Rectángulo_1" data-name="Rectángulo 1" width="4.955" height="29.806" transform="translate(292.007 130.102)" fill="#fff"/>
    <path id="Trazado_5" data-name="Trazado 5" d="M533.706,138.8v21.589h-4.46V130.578h6.218l5.091,17.841V130.578h4.415v29.807h-5.091Z" transform="translate(-226.921 -0.476)" fill="#fff"/>
    <path id="Trazado_6" data-name="Trazado 6" d="M593.881,160.383h-5l-.856-5.406h-6.082l-.856,5.406h-4.55l5.047-29.805h7.253Zm-11.309-9.452h4.776l-2.389-15.072Z" transform="translate(-254.428 -0.476)" fill="#fff"/>
    <path id="Trazado_7" data-name="Trazado 7" d="M641.508,148.8v3.959c0,4.769-2.523,7.5-7.39,7.5s-7.389-2.726-7.389-7.5v-15.5c0-4.769,2.523-7.5,7.389-7.5s7.39,2.727,7.39,7.5v2.894h-4.686v-3.193c0-2.128-.992-2.938-2.569-2.938s-2.569.81-2.569,2.938v16.1c0,2.129.992,2.895,2.569,2.895s2.569-.766,2.569-2.895V148.8Z" transform="translate(-283.624 -0.001)" fill="#fff"/>
    <rect id="Rectángulo_2" data-name="Rectángulo 2" width="4.956" height="29.806" transform="translate(362.707 130.102)" fill="#fff"/>
    <path id="Trazado_8" data-name="Trazado 8" d="M697.391,137.255c0-4.769,2.657-7.5,7.525-7.5s7.524,2.726,7.524,7.5v15.5c0,4.769-2.66,7.5-7.524,7.5s-7.525-2.726-7.525-7.5Zm4.955,15.8c0,2.13.992,2.938,2.57,2.938s2.567-.808,2.567-2.938v-16.1c0-2.128-.99-2.938-2.567-2.938s-2.57.81-2.57,2.938Z" transform="translate(-324.726 0)" fill="#fff"/>
    <path id="Trazado_9" data-name="Trazado 9" d="M749.679,138.8v21.589h-4.46V130.578h6.216l5.093,17.841V130.578h4.415v29.807h-5.091Z" transform="translate(-352.546 -0.476)" fill="#fff"/>
    <path id="Trazado_10" data-name="Trazado 10" d="M809.853,160.383h-5l-.856-5.406h-6.082l-.856,5.406h-4.551l5.045-29.805h7.255Zm-11.309-9.452h4.776l-2.389-15.072Z" transform="translate(-380.053 -0.476)" fill="#fff"/>
    <path id="Trazado_11" data-name="Trazado 11" d="M843.781,130.578h4.955v25.548h8.154v4.258H843.781Z" transform="translate(-409.878 -0.476)" fill="#fff"/>
    <path id="Trazado_12" data-name="Trazado 12" d="M423.032,231.792H318.444a1.967,1.967,0,0,1-1.968-1.966v-11.99a2.063,2.063,0,0,1,2.062-2.061H428.111a2.225,2.225,0,0,1,2.119,2.895L427,228.88a4.164,4.164,0,0,1-3.972,2.912" transform="translate(-103.158 -50.032)" fill="#fff"/>
    <path id="Trazado_13" data-name="Trazado 13" d="M170.564,195.155c-7.47,4.162-22.641,12.735-31.436,23.79,10.319-17.927,26.6-24.21,31.436-23.79" transform="translate(0 -38.027)" fill="#fff"/>
    <path id="Trazado_14" data-name="Trazado 14" d="M234.749,177.611a19.043,19.043,0,0,0-8.433.667,22.077,22.077,0,0,1,6.488,1.275Z" transform="translate(-50.714 -27.718)" fill="#fff"/>
    <path id="Trazado_15" data-name="Trazado 15" d="M176.651,174.332a20.79,20.79,0,1,0-9.325-23.13,39.637,39.637,0,0,0-13.842,9.929c21.43-13.183,39.456-13.039,41.752-8.146,1.67.189,5.615,1.119,6.216,5.783-6.407-1.079-29.343,8.061-41.336,22.859,7.483-5.783,20.921-14.416,29.722-16.456-7.016,3.827-10.841,6.761-13.188,9.161" transform="translate(-8.35 -3.485)" fill="#fff"/>
    <path id="Trazado_16" data-name="Trazado 16" d="M325.181,228.884v-.446l1.826-.2v.465c0,.913.466,1.466,1.217,1.466a1.123,1.123,0,0,0,1.217-1.2c0-.787-.322-1.36-1.738-2.7-1.879-1.772-2.415-2.74-2.415-4.118a2.888,2.888,0,1,1,5.763.017v.324l-1.824.2v-.358c0-.966-.377-1.468-1.038-1.468s-1.039.412-1.039,1.2.394,1.361,1.736,2.7c1.826,1.825,2.418,2.739,2.418,4.116a3.061,3.061,0,1,1-6.123,0" transform="translate(-108.222 -51.953)" fill="#2b2c2c"/>
    <path id="Trazado_17" data-name="Trazado 17" d="M342.813,219.5H348.2v1.79h-3.49v3.491h2.773v1.788H344.71v3.671h3.49v1.79h-5.386Z" transform="translate(-118.478 -52.201)" fill="#2b2c2c"/>
    <path id="Trazado_18" data-name="Trazado 18" d="M362.908,232.031l-1.379-5.173h-.983v5.173h-1.9V219.5h2.972a2.8,2.8,0,0,1,2.97,2.989v1.38a2.845,2.845,0,0,1-1.307,2.559l1.594,5.6Zm-2.363-6.963h.983a1.065,1.065,0,0,0,1.165-1.163v-1.449a1.065,1.065,0,0,0-1.165-1.164h-.983Z" transform="translate(-127.688 -52.199)" fill="#2b2c2c"/>
    <path id="Trazado_19" data-name="Trazado 19" d="M381.561,219.5l-2.077,12.53h-2.543l-2.077-12.53H376.8l1.432,9.845,1.432-9.845Z" transform="translate(-137.121 -52.201)" fill="#2b2c2c"/>
    <rect id="Rectángulo_3" data-name="Rectángulo 3" width="1.898" height="12.531" transform="translate(245.55 167.301)" fill="#2b2c2c"/>
    <path id="Trazado_20" data-name="Trazado 20" d="M401.785,228.994V222.05a2.971,2.971,0,0,1,5.942,0v1.468h-1.86V222.05a1.1,1.1,0,1,0-2.184,0v6.945a1.1,1.1,0,1,0,2.184,0V227.2h1.86v1.79a2.971,2.971,0,1,1-5.942,0" transform="translate(-152.78 -51.955)" fill="#2b2c2c"/>
    <path id="Trazado_21" data-name="Trazado 21" d="M419.29,219.5h5.388v1.79h-3.49v3.491h2.774v1.788h-2.774v3.671h3.49v1.79H419.29Z" transform="translate(-162.962 -52.201)" fill="#2b2c2c"/>
    <path id="Trazado_22" data-name="Trazado 22" d="M442.443,228.994V222.05a2.971,2.971,0,0,1,5.942,0v1.468h-1.86V222.05a1.1,1.1,0,1,0-2.185,0v6.945a1.1,1.1,0,1,0,2.185,0V227.2h1.86v1.79a2.971,2.971,0,1,1-5.942,0" transform="translate(-176.43 -51.955)" fill="#2b2c2c"/>
    <path id="Trazado_23" data-name="Trazado 23" d="M459.733,228.94V222.1a3.043,3.043,0,0,1,6.085,0v6.838a3.043,3.043,0,0,1-6.085,0m4.188,0V222.1a1.149,1.149,0,1,0-2.292,0v6.838a1.149,1.149,0,1,0,2.292,0" transform="translate(-186.487 -51.954)" fill="#2b2c2c"/>
    <path id="Trazado_24" data-name="Trazado 24" d="M482.266,232.031l-1.379-5.173H479.9v5.173h-1.9V219.5h2.971a2.8,2.8,0,0,1,2.972,2.989v1.38a2.848,2.848,0,0,1-1.308,2.559l1.595,5.6Zm-2.363-6.963h.983a1.065,1.065,0,0,0,1.165-1.163v-1.449a1.065,1.065,0,0,0-1.165-1.164H479.9Z" transform="translate(-197.117 -52.199)" fill="#2b2c2c"/>
    <path id="Trazado_25" data-name="Trazado 25" d="M495.769,219.5h2.97a2.8,2.8,0,0,1,2.972,2.989v1.468a2.8,2.8,0,0,1-2.972,2.989h-1.073v5.083h-1.9Zm2.88,5.655A1.065,1.065,0,0,0,499.813,224v-1.538a1.065,1.065,0,0,0-1.165-1.165h-.983v3.867Z" transform="translate(-207.448 -52.202)" fill="#2b2c2c"/>
    <path id="Trazado_26" data-name="Trazado 26" d="M519.6,228.884v-.446l1.824-.2v.465c0,.913.468,1.466,1.218,1.466a1.123,1.123,0,0,0,1.218-1.2c0-.787-.32-1.36-1.738-2.7-1.877-1.772-2.416-2.74-2.416-4.118a2.889,2.889,0,1,1,5.765.017v.324l-1.826.2v-.358c0-.966-.376-1.468-1.036-1.468s-1.04.412-1.04,1.2.4,1.361,1.737,2.7c1.824,1.825,2.417,2.739,2.417,4.116a3.061,3.061,0,1,1-6.121,0" transform="translate(-221.312 -51.953)" fill="#2b2c2c"/>
    <path id="Trazado_27" data-name="Trazado 27" d="M540.13,229.26H538.09l-.412,2.774h-1.9l2.074-12.528H540.4l2.075,12.528h-1.932Zm-.251-1.826-.769-5.243-.768,5.243Z" transform="translate(-230.723 -52.203)" fill="#2b2c2c"/>
    <path id="Trazado_28" data-name="Trazado 28" d="M554.01,228.994V222.05a2.971,2.971,0,0,1,5.942,0v1.468h-1.86V222.05a1.1,1.1,0,1,0-2.184,0v6.945a1.1,1.1,0,1,0,2.184,0V227.2h1.86v1.79a2.971,2.971,0,1,1-5.942,0" transform="translate(-241.326 -51.955)" fill="#2b2c2c"/>
    <path id="Trazado_29" data-name="Trazado 29" d="M596.412,228.94V222.1a3.043,3.043,0,0,1,6.085,0v6.838a3.043,3.043,0,0,1-6.085,0m4.189,0V222.1a1.149,1.149,0,1,0-2.292,0v6.838a1.149,1.149,0,1,0,2.292,0" transform="translate(-265.99 -51.954)" fill="#fff"/>
    <path id="Trazado_30" data-name="Trazado 30" d="M614.691,219.5h2.97a2.8,2.8,0,0,1,2.972,2.989v1.468a2.8,2.8,0,0,1-2.972,2.989h-1.074v5.083h-1.9Zm2.88,5.655A1.065,1.065,0,0,0,618.735,224v-1.538a1.065,1.065,0,0,0-1.164-1.165h-.984v3.867Z" transform="translate(-276.622 -52.202)" fill="#fff"/>
    <path id="Trazado_31" data-name="Trazado 31" d="M631.848,219.5h5.388v1.79h-3.49v3.491h2.774v1.788h-2.774v3.671h3.49v1.79h-5.388Z" transform="translate(-286.602 -52.201)" fill="#fff"/>
    <path id="Trazado_32" data-name="Trazado 32" d="M651.946,232.031l-1.379-5.173h-.984v5.173h-1.9V219.5h2.97a2.8,2.8,0,0,1,2.972,2.989v1.38a2.848,2.848,0,0,1-1.308,2.559l1.594,5.6Zm-2.363-6.963h.984a1.065,1.065,0,0,0,1.165-1.163v-1.449a1.065,1.065,0,0,0-1.165-1.164h-.984Z" transform="translate(-295.815 -52.199)" fill="#fff"/>
    <path id="Trazado_33" data-name="Trazado 33" d="M668.338,229.26H666.3l-.411,2.774h-1.9l2.075-12.528h2.544l2.075,12.528h-1.932Zm-.249-1.826-.769-5.243-.771,5.243Z" transform="translate(-305.298 -52.203)" fill="#fff"/>
    <path id="Trazado_34" data-name="Trazado 34" d="M682.649,219.5h2.972a2.8,2.8,0,0,1,2.97,2.989v6.553a2.8,2.8,0,0,1-2.97,2.988h-2.972Zm2.882,10.74a1.064,1.064,0,0,0,1.164-1.164v-6.62a1.065,1.065,0,0,0-1.164-1.165h-.984v8.95Z" transform="translate(-316.151 -52.201)" fill="#fff"/>
    <path id="Trazado_35" data-name="Trazado 35" d="M700.153,228.94V222.1a3.043,3.043,0,0,1,6.085,0v6.838a3.043,3.043,0,0,1-6.085,0m4.188,0V222.1a1.149,1.149,0,1,0-2.292,0v6.838a1.149,1.149,0,1,0,2.292,0" transform="translate(-326.333 -51.954)" fill="#fff"/>
    <path id="Trazado_36" data-name="Trazado 36" d="M722.685,232.031l-1.379-5.173h-.984v5.173h-1.9V219.5H721.4a2.8,2.8,0,0,1,2.97,2.989v1.38a2.845,2.845,0,0,1-1.307,2.559l1.594,5.6Zm-2.363-6.963h.984a1.065,1.065,0,0,0,1.165-1.163v-1.449a1.065,1.065,0,0,0-1.165-1.164h-.984Z" transform="translate(-336.961 -52.199)" fill="#fff"/>
    <path id="Trazado_37" data-name="Trazado 37" d="M743.888,219.5h1.9v10.74h3.384v1.79h-5.28Z" transform="translate(-351.773 -52.201)" fill="#fff"/>
    <path id="Trazado_38" data-name="Trazado 38" d="M758.779,228.94V222.1a3.043,3.043,0,0,1,6.085,0v6.838a3.043,3.043,0,0,1-6.085,0m4.189,0V222.1a1.149,1.149,0,1,0-2.292,0v6.838a1.149,1.149,0,1,0,2.292,0" transform="translate(-360.434 -51.954)" fill="#fff"/>
    <path id="Trazado_39" data-name="Trazado 39" d="M780.856,223.155V222.1a1.149,1.149,0,1,0-2.292,0v6.839a1.149,1.149,0,1,0,2.292,0v-2.22H779.71v-1.79h3.042v4.01a3.043,3.043,0,0,1-6.085,0V222.1a3.043,3.043,0,0,1,6.085,0v1.055Z" transform="translate(-370.839 -51.952)" fill="#fff"/>
    <rect id="Rectángulo_4" data-name="Rectángulo 4" width="1.896" height="12.531" transform="translate(413.401 167.301)" fill="#fff"/>
    <path id="Trazado_40" data-name="Trazado 40" d="M802.391,228.884v-.446l1.824-.2v.465c0,.913.467,1.466,1.218,1.466a1.123,1.123,0,0,0,1.217-1.2c0-.787-.32-1.36-1.738-2.7-1.877-1.772-2.416-2.74-2.416-4.118a2.889,2.889,0,1,1,5.765.017v.324l-1.826.2v-.358c0-.966-.377-1.468-1.037-1.468s-1.04.412-1.04,1.2.4,1.361,1.737,2.7c1.825,1.825,2.417,2.739,2.417,4.116a3.061,3.061,0,1,1-6.121,0" transform="translate(-385.802 -51.953)" fill="#fff"/>
    <path id="Trazado_41" data-name="Trazado 41" d="M818.438,219.5h6.049v1.79h-2.077v10.74h-1.9v-10.74h-2.076Z" transform="translate(-395.137 -52.201)" fill="#fff"/>
    <rect id="Rectángulo_5" data-name="Rectángulo 5" width="1.898" height="12.531" transform="translate(430.462 167.301)" fill="#fff"/>
    <path id="Trazado_42" data-name="Trazado 42" d="M843.813,228.994V222.05a2.971,2.971,0,0,1,5.942,0v1.468h-1.86V222.05a1.1,1.1,0,1,0-2.184,0v6.945a1.1,1.1,0,1,0,2.184,0V227.2h1.86v1.79a2.971,2.971,0,1,1-5.942,0" transform="translate(-409.896 -51.955)" fill="#fff"/>
    <path id="Trazado_43" data-name="Trazado 43" d="M861.1,228.94V222.1a3.043,3.043,0,0,1,6.085,0v6.838a3.043,3.043,0,0,1-6.085,0m4.189,0V222.1a1.149,1.149,0,1,0-2.291,0v6.838a1.149,1.149,0,1,0,2.291,0" transform="translate(-419.954 -51.954)" fill="#fff"/>
  </g>
</svg>
